<svg width="22" height="22" viewBox="0 0 22 22" fill="none" xmlns="http://www.w3.org/2000/svg">
<path d="M17.6392 11.4656C17.6392 15.8755 14.5523 18.0804 10.8833 19.3593C10.6912 19.4244 10.4825 19.4213 10.2924 19.3505C6.61451 18.0804 3.52759 15.8755 3.52759 11.4656V5.29174C3.52759 5.05782 3.62051 4.83349 3.78591 4.66808C3.95132 4.50268 4.17565 4.40976 4.40957 4.40976C6.17352 4.40976 8.37846 3.35138 9.91311 2.01078C10.1 1.85114 10.3376 1.76343 10.5834 1.76343C10.8292 1.76343 11.0669 1.85114 11.2537 2.01078C12.7972 3.3602 14.9933 4.40976 16.7573 4.40976C16.9912 4.40976 17.2155 4.50268 17.3809 4.66808C17.5463 4.83349 17.6392 5.05782 17.6392 5.29174V11.4656Z" stroke="black" stroke-width="1.76395" stroke-linecap="round" stroke-linejoin="round"/>
</svg>
