<svg width="71" height="71" viewBox="0 0 71 71" fill="none" xmlns="http://www.w3.org/2000/svg">
<path d="M0 35.4315C0 15.8632 15.8632 0 35.4315 0V0C54.9998 0 70.863 15.8632 70.863 35.4315V35.4315C70.863 54.9998 54.9998 70.863 35.4315 70.863V70.863C15.8632 70.863 0 54.9998 0 35.4315V35.4315Z" fill="#C9A227"/>
<path d="M40.5647 36.7454L42.8013 49.3324C42.8263 49.4806 42.8055 49.6329 42.7417 49.769C42.6778 49.9051 42.5739 50.0184 42.4439 50.0939C42.3139 50.1693 42.164 50.2033 42.0141 50.1912C41.8643 50.1791 41.7217 50.1216 41.6055 50.0263L36.3203 46.0594C36.0651 45.8688 35.7552 45.7658 35.4367 45.7658C35.1182 45.7658 34.8083 45.8688 34.5531 46.0594L29.2591 50.0248C29.1429 50.1199 29.0005 50.1774 28.8509 50.1895C28.7012 50.2016 28.5514 50.1677 28.4215 50.0925C28.2916 50.0173 28.1877 49.9042 28.1237 49.7684C28.0597 49.6326 28.0386 49.4805 28.0633 49.3324L30.2984 36.7454" stroke="white" stroke-width="2.95263" stroke-linecap="round" stroke-linejoin="round"/>
<path d="M35.4316 38.384C40.3237 38.384 44.2895 34.4182 44.2895 29.5261C44.2895 24.634 40.3237 20.6682 35.4316 20.6682C30.5395 20.6682 26.5737 24.634 26.5737 29.5261C26.5737 34.4182 30.5395 38.384 35.4316 38.384Z" stroke="white" stroke-width="2.95263" stroke-linecap="round" stroke-linejoin="round"/>
</svg>
