<svg width="32" height="32" viewBox="0 0 32 32" fill="none" xmlns="http://www.w3.org/2000/svg">
<path d="M20.0002 2.66669H8.00016C7.29292 2.66669 6.61464 2.94764 6.11454 3.44774C5.61445 3.94783 5.3335 4.62611 5.3335 5.33335V26.6667C5.3335 27.3739 5.61445 28.0522 6.11454 28.5523C6.61464 29.0524 7.29292 29.3334 8.00016 29.3334H24.0002C24.7074 29.3334 25.3857 29.0524 25.8858 28.5523C26.3859 28.0522 26.6668 27.3739 26.6668 26.6667V9.33335L20.0002 2.66669Z" stroke="black" stroke-width="2.66667" stroke-linecap="round" stroke-linejoin="round"/>
<path d="M18.6665 2.66669V8.00002C18.6665 8.70726 18.9475 9.38554 19.4476 9.88564C19.9477 10.3857 20.6259 10.6667 21.3332 10.6667H26.6665" stroke="black" stroke-width="2.66667" stroke-linecap="round" stroke-linejoin="round"/>
<path d="M13.3332 12H10.6665" stroke="black" stroke-width="2.66667" stroke-linecap="round" stroke-linejoin="round"/>
<path d="M21.3332 17.3333H10.6665" stroke="black" stroke-width="2.66667" stroke-linecap="round" stroke-linejoin="round"/>
<path d="M21.3332 22.6667H10.6665" stroke="black" stroke-width="2.66667" stroke-linecap="round" stroke-linejoin="round"/>
</svg>
