<svg width="40" height="40" viewBox="0 0 40 40" fill="none" xmlns="http://www.w3.org/2000/svg">
<path d="M25.7524 21.4478L28.2733 35.6343C28.3015 35.8013 28.2781 35.973 28.2061 36.1264C28.1341 36.2797 28.017 36.4075 27.8705 36.4925C27.7239 36.5775 27.5549 36.6158 27.3861 36.6022C27.2172 36.5886 27.0565 36.5237 26.9255 36.4163L20.9687 31.9454C20.6811 31.7305 20.3318 31.6145 19.9728 31.6145C19.6139 31.6145 19.2646 31.7305 18.977 31.9454L13.0102 36.4146C12.8793 36.5219 12.7188 36.5866 12.5501 36.6002C12.3815 36.6139 12.2126 36.5758 12.0662 36.491C11.9198 36.4062 11.8027 36.2787 11.7305 36.1257C11.6584 35.9726 11.6346 35.8012 11.6624 35.6343L14.1816 21.4478" stroke="#010103" stroke-width="3.32782" stroke-linecap="round" stroke-linejoin="round"/>
<path d="M19.967 23.2948C25.4807 23.2948 29.9505 18.825 29.9505 13.3113C29.9505 7.79757 25.4807 3.32782 19.967 3.32782C14.4533 3.32782 9.98352 7.79757 9.98352 13.3113C9.98352 18.825 14.4533 23.2948 19.967 23.2948Z" stroke="#010103" stroke-width="3.32782" stroke-linecap="round" stroke-linejoin="round"/>
</svg>
