<svg width="40" height="40" viewBox="0 0 40 40" fill="none" xmlns="http://www.w3.org/2000/svg">
<path d="M19.9669 11.6473V34.9421" stroke="#010103" stroke-width="3.32782" stroke-linecap="round" stroke-linejoin="round"/>
<path d="M4.99173 29.9504C4.55043 29.9504 4.12721 29.7751 3.81517 29.463C3.50312 29.151 3.32782 28.7278 3.32782 28.2865V6.65561C3.32782 6.21431 3.50312 5.79109 3.81517 5.47905C4.12721 5.167 4.55043 4.9917 4.99173 4.9917H13.3113C15.0765 4.9917 16.7694 5.69292 18.0175 6.94109C19.2657 8.18927 19.9669 9.88216 19.9669 11.6473C19.9669 9.88216 20.6682 8.18927 21.9163 6.94109C23.1645 5.69292 24.8574 4.9917 26.6226 4.9917H34.9421C35.3834 4.9917 35.8067 5.167 36.1187 5.47905C36.4308 5.79109 36.6061 6.21431 36.6061 6.65561V28.2865C36.6061 28.7278 36.4308 29.151 36.1187 29.463C35.8067 29.7751 35.3834 29.9504 34.9421 29.9504H24.9587C23.6348 29.9504 22.3651 30.4763 21.429 31.4124C20.4929 32.3486 19.9669 33.6182 19.9669 34.9421C19.9669 33.6182 19.441 32.3486 18.5049 31.4124C17.5688 30.4763 16.2991 29.9504 14.9752 29.9504H4.99173Z" stroke="#010103" stroke-width="3.32782" stroke-linecap="round" stroke-linejoin="round"/>
</svg>
