<svg width="40" height="40" viewBox="0 0 40 40" fill="none" xmlns="http://www.w3.org/2000/svg">
<path d="M33.2782 21.6309C33.2782 29.9504 27.4546 34.1102 20.5327 36.5229C20.1702 36.6457 19.7765 36.6398 19.4179 36.5062C12.4793 34.1102 6.65565 29.9504 6.65565 21.6309V9.98348C6.65565 9.54219 6.83096 9.11896 7.143 8.80692C7.45505 8.49488 7.87827 8.31957 8.31957 8.31957C11.6474 8.31957 15.8072 6.32288 18.7024 3.79373C19.0549 3.49256 19.5033 3.32709 19.967 3.32709C20.4306 3.32709 20.879 3.49256 21.2315 3.79373C24.1434 6.33952 28.2865 8.31957 31.6143 8.31957C32.0556 8.31957 32.4789 8.49488 32.7909 8.80692C33.1029 9.11896 33.2782 9.54219 33.2782 9.98348V21.6309Z" stroke="#010103" stroke-width="3.32782" stroke-linecap="round" stroke-linejoin="round"/>
</svg>
