<svg width="20" height="20" viewBox="0 0 20 20" fill="none" xmlns="http://www.w3.org/2000/svg">
<g clip-path="url(#clip0_16_615)">
<path d="M14.1667 1.6665H5.83335C3.53217 1.6665 1.66669 3.53198 1.66669 5.83317V14.1665C1.66669 16.4677 3.53217 18.3332 5.83335 18.3332H14.1667C16.4679 18.3332 18.3334 16.4677 18.3334 14.1665V5.83317C18.3334 3.53198 16.4679 1.6665 14.1667 1.6665Z" stroke="#010103" stroke-width="1.66667" stroke-linecap="round" stroke-linejoin="round"/>
<path d="M13.3333 9.47476C13.4362 10.1683 13.3177 10.8766 12.9948 11.4989C12.6719 12.1213 12.1609 12.6259 11.5347 12.9412C10.9084 13.2564 10.1987 13.3661 9.50647 13.2547C8.81425 13.1433 8.17478 12.8165 7.67901 12.3207C7.18324 11.825 6.85642 11.1855 6.74504 10.4933C6.63365 9.80106 6.74337 9.09134 7.05858 8.46507C7.3738 7.83881 7.87847 7.32788 8.5008 7.00496C9.12313 6.68205 9.83144 6.56359 10.525 6.66643C11.2324 6.77133 11.8874 7.10098 12.3931 7.60669C12.8988 8.11239 13.2284 8.76733 13.3333 9.47476Z" stroke="#010103" stroke-width="1.66667" stroke-linecap="round" stroke-linejoin="round"/>
<path d="M14.5833 5.4165H14.5916" stroke="#010103" stroke-width="1.66667" stroke-linecap="round" stroke-linejoin="round"/>
</g>
<defs>
<clipPath id="clip0_16_615">
<rect width="20" height="20" fill="white"/>
</clipPath>
</defs>
</svg>
