<svg width="20" height="19" viewBox="0 0 20 19" fill="none" xmlns="http://www.w3.org/2000/svg">
<path d="M9.2845 1.14217C9.32316 1.06408 9.38286 0.998348 9.45689 0.95239C9.53091 0.906433 9.61631 0.88208 9.70344 0.88208C9.79057 0.88208 9.87597 0.906433 9.95 0.95239C10.024 0.998348 10.0837 1.06408 10.1224 1.14217L12.1598 5.26894C12.294 5.54056 12.4921 5.77556 12.7371 5.95376C12.9821 6.13196 13.2667 6.24804 13.5665 6.29204L18.1228 6.95881C18.2091 6.97132 18.2902 7.00774 18.357 7.06394C18.4237 7.12015 18.4733 7.1939 18.5003 7.27686C18.5273 7.35982 18.5305 7.44867 18.5096 7.53337C18.4887 7.61806 18.4446 7.69522 18.3821 7.75612L15.087 10.9648C14.8697 11.1765 14.7071 11.4379 14.6133 11.7265C14.5194 12.015 14.497 12.322 14.5481 12.6211L15.3261 17.1545C15.3413 17.2408 15.332 17.3296 15.2991 17.4109C15.2663 17.4921 15.2113 17.5625 15.1404 17.614C15.0695 17.6655 14.9856 17.696 14.8982 17.7021C14.8108 17.7082 14.7234 17.6896 14.646 17.6484L10.5731 15.5069C10.3047 15.366 10.0061 15.2924 9.703 15.2924C9.39988 15.2924 9.1013 15.366 8.83293 15.5069L4.76084 17.6484C4.68352 17.6893 4.59626 17.7077 4.50899 17.7015C4.42172 17.6953 4.33795 17.6648 4.26719 17.6133C4.19644 17.5618 4.14155 17.4916 4.10876 17.4104C4.07597 17.3293 4.0666 17.2406 4.08172 17.1545L4.85874 12.622C4.91007 12.3228 4.88783 12.0155 4.79395 11.7268C4.70007 11.4381 4.53736 11.1766 4.31985 10.9648L1.02478 7.757C0.961805 7.69618 0.917177 7.61888 0.895982 7.53393C0.874787 7.44897 0.877879 7.35978 0.904904 7.27649C0.93193 7.19321 0.981802 7.11919 1.04884 7.06287C1.11588 7.00655 1.19739 6.97019 1.28409 6.95793L5.8395 6.29204C6.1396 6.24838 6.42459 6.13245 6.66996 5.95423C6.91532 5.77601 7.1137 5.54083 7.24802 5.26894L9.2845 1.14217Z" stroke="black" stroke-width="1.76395" stroke-linecap="round" stroke-linejoin="round"/>
</svg>
