<svg width="32" height="32" viewBox="0 0 32 32" fill="none" xmlns="http://www.w3.org/2000/svg">
<path d="M16 17.3334V28" stroke="black" stroke-width="2.66667" stroke-linecap="round" stroke-linejoin="round"/>
<path d="M5.33313 19.8653C4.34252 18.8532 3.59523 17.6289 3.14785 16.2852C2.70047 14.9415 2.56474 13.5136 2.75095 12.1097C2.93715 10.7058 3.44041 9.36265 4.22259 8.18203C5.00478 7.00141 6.04538 6.01427 7.26558 5.29539C8.48578 4.5765 9.85357 4.14472 11.2654 4.03276C12.6771 3.92079 14.0959 4.13157 15.4142 4.64913C16.7324 5.1667 17.9156 5.97747 18.8741 7.02004C19.8326 8.0626 20.5413 9.30963 20.9465 10.6667H23.3331C24.6205 10.6665 25.8737 11.0804 26.9078 11.8472C27.9418 12.6141 28.7018 13.6931 29.0755 14.9251C29.4492 16.157 29.4167 17.4764 28.9829 18.6885C28.5491 19.9005 27.737 20.9409 26.6665 21.656" stroke="black" stroke-width="2.66667" stroke-linecap="round" stroke-linejoin="round"/>
<path d="M10.6665 22.6667L15.9998 17.3334L21.3332 22.6667" stroke="black" stroke-width="2.66667" stroke-linecap="round" stroke-linejoin="round"/>
</svg>
