<svg width="71" height="71" viewBox="0 0 71 71" fill="none" xmlns="http://www.w3.org/2000/svg">
<path d="M47.242 62.0053V56.1001C47.242 52.9677 45.9977 49.9637 43.7828 47.7488C41.5679 45.5339 38.5639 44.2896 35.4315 44.2896H17.7158C14.5834 44.2896 11.5794 45.5339 9.36449 47.7488C7.14959 49.9637 5.90527 52.9677 5.90527 56.1001V62.0053" stroke="white" stroke-width="5.90525" stroke-linecap="round" stroke-linejoin="round"/>
<path d="M26.5737 32.4789C33.0964 32.4789 38.3842 27.1912 38.3842 20.6684C38.3842 14.1457 33.0964 8.85791 26.5737 8.85791C20.0509 8.85791 14.7632 14.1457 14.7632 20.6684C14.7632 27.1912 20.0509 32.4789 26.5737 32.4789Z" stroke="white" stroke-width="5.90525" stroke-linecap="round" stroke-linejoin="round"/>
<path d="M64.9575 62.005V56.0998C64.9555 53.4829 64.0846 50.9408 62.4813 48.8727C60.8781 46.8045 58.6333 45.3273 56.0996 44.6731" stroke="white" stroke-width="5.90525" stroke-linecap="round" stroke-linejoin="round"/>
<path d="M47.2419 9.2417C49.7824 9.89217 52.0342 11.3697 53.6422 13.4412C55.2502 15.5128 56.123 18.0607 56.123 20.6831C56.123 23.3056 55.2502 25.8534 53.6422 27.925C52.0342 29.9966 49.7824 31.4741 47.2419 32.1245" stroke="white" stroke-width="5.90525" stroke-linecap="round" stroke-linejoin="round"/>
</svg>
