<svg width="20" height="20" viewBox="0 0 20 20" fill="none" xmlns="http://www.w3.org/2000/svg">
<path d="M2.08334 5.83333C1.50119 8.58061 1.50119 11.4194 2.08334 14.1667C2.15983 14.4457 2.30762 14.6999 2.51218 14.9045C2.71674 15.1091 2.97101 15.2568 3.25001 15.3333C7.71953 16.0739 12.2805 16.0739 16.75 15.3333C17.029 15.2568 17.2833 15.1091 17.4878 14.9045C17.6924 14.6999 17.8402 14.4457 17.9167 14.1667C18.4988 11.4194 18.4988 8.58061 17.9167 5.83333C17.8402 5.55434 17.6924 5.30006 17.4878 5.0955C17.2833 4.89095 17.029 4.74316 16.75 4.66667C12.2805 3.92622 7.71955 3.92622 3.25001 4.66667C2.97101 4.74316 2.71674 4.89095 2.51218 5.0955C2.30762 5.30006 2.15983 5.55434 2.08334 5.83333Z" stroke="#010103" stroke-width="1.66667" stroke-linecap="round" stroke-linejoin="round"/>
<path d="M8.33331 12.5L12.5 10L8.33331 7.5V12.5Z" stroke="#010103" stroke-width="1.66667" stroke-linecap="round" stroke-linejoin="round"/>
</svg>
